HIERARCHY
ROOT mixamorig:Hips
{
	OFFSET 0.000000 99.672066 0.247052
	CHANNELS 6 Xposition Yposition Zposition Xrotation Yrotation Zrotation
	JOINT mixamorig:Spine
	{
		OFFSET 0.000001 9.923462 -1.227335
		CHANNELS 6 Xposition Yposition Zposition Xrotation Yrotation Zrotation
		JOINT mixamorig:Spine1
		{
			OFFSET -0.000139 11.645439 -1.422341
			CHANNELS 6 Xposition Yposition Zposition Xrotation Yrotation Zrotation
			JOINT mixamorig:Spine2
			{
				OFFSET 0.000091 13.360199 -1.626460
				CHANNELS 6 Xposition Yposition Zposition Xrotation Yrotation Zrotation
				JOINT mixamorig:Neck
				{
					OFFSET 0.000025 15.032501 0.792905
					CHANNELS 6 Xposition Yposition Zposition Xrotation Yrotation Zrotation
					JOINT mixamorig:Head
					{
						OFFSET 0.000002 10.321823 3.142429
						CHANNELS 6 Xposition Yposition Zposition Xrotation Yrotation Zrotation
						JOINT mixamorig:HeadTop_End
						{
							OFFSET 0.000154 18.474670 6.636399
							CHANNELS 6 Xposition Yposition Zposition Xrotation Yrotation Zrotation
							End Site
							{
								OFFSET 0.000000 14.732239 0.000000
							}
						}
						JOINT mixamorig:LeftEye
						{
							OFFSET 2.947915 7.681747 9.120731
							CHANNELS 6 Xposition Yposition Zposition Xrotation Yrotation Zrotation
							End Site
							{
								OFFSET 0.000000 14.732239 0.000000
							}
						}
						JOINT mixamorig:RightEye
						{
							OFFSET -2.944481 7.681747 9.120496
							CHANNELS 6 Xposition Yposition Zposition Xrotation Yrotation Zrotation
							End Site
							{
								OFFSET 0.000000 14.732239 0.000000
							}
						}
					}
				}
				JOINT mixamorig:LeftShoulder
				{
					OFFSET 6.105824 9.110428 0.705551
					CHANNELS 6 Xposition Yposition Zposition Xrotation Yrotation Zrotation
					JOINT mixamorig:LeftArm
					{
						OFFSET 12.655037 -0.265930 -2.600922
						CHANNELS 6 Xposition Yposition Zposition Xrotation Yrotation Zrotation
						JOINT mixamorig:LeftForeArm
						{
							OFFSET 27.404682 0.000031 0.000007
							CHANNELS 6 Xposition Yposition Zposition Xrotation Yrotation Zrotation
							JOINT mixamorig:LeftHand
							{
								OFFSET 27.614464 0.000031 0.000020
								CHANNELS 6 Xposition Yposition Zposition Xrotation Yrotation Zrotation
								JOINT mixamorig:LeftHandMiddle1
								{
									OFFSET 12.775528 0.000015 0.000021
									CHANNELS 6 Xposition Yposition Zposition Xrotation Yrotation Zrotation
									JOINT mixamorig:LeftHandMiddle2
									{
										OFFSET 3.613968 0.000000 0.000000
										CHANNELS 3 Xrotation Yrotation Zrotation
										JOINT mixamorig:LeftHandMiddle3
										{
											OFFSET 3.459763 0.000000 -0.000024
											CHANNELS 6 Xposition Yposition Zposition Xrotation Yrotation Zrotation
											JOINT mixamorig:LeftHandMiddle4
											{
												OFFSET 3.680191 0.000000 0.000033
												CHANNELS 6 Xposition Yposition Zposition Xrotation Yrotation Zrotation
												End Site
												{
													OFFSET 3.680191 0.000000 0.000000
												}
											}
										}
									}
								}
								JOINT mixamorig:LeftHandThumb1
								{
									OFFSET 3.788811 -2.166992 3.003088
									CHANNELS 6 Xposition Yposition Zposition Xrotation Yrotation Zrotation
									JOINT mixamorig:LeftHandThumb2
									{
										OFFSET 3.675446 -2.122009 2.122012
										CHANNELS 6 Xposition Yposition Zposition Xrotation Yrotation Zrotation
										JOINT mixamorig:LeftHandThumb3
										{
											OFFSET 3.394356 -1.959747 1.959793
											CHANNELS 6 Xposition Yposition Zposition Xrotation Yrotation Zrotation
											JOINT mixamorig:LeftHandThumb4
											{
												OFFSET 2.679405 -1.546951 1.546920
												CHANNELS 6 Xposition Yposition Zposition Xrotation Yrotation Zrotation
												End Site
												{
													OFFSET 3.459076 0.000000 0.000000
												}
											}
										}
									}
								}
								JOINT mixamorig:LeftHandIndex1
								{
									OFFSET 12.266617 -0.231659 2.822058
									CHANNELS 6 Xposition Yposition Zposition Xrotation Yrotation Zrotation
									JOINT mixamorig:LeftHandIndex2
									{
										OFFSET 3.891968 0.000000 0.000039
										CHANNELS 6 Xposition Yposition Zposition Xrotation Yrotation Zrotation
										JOINT mixamorig:LeftHandIndex3
										{
											OFFSET 3.415161 0.000000 -0.000009
											CHANNELS 6 Xposition Yposition Zposition Xrotation Yrotation Zrotation
											JOINT mixamorig:LeftHandIndex4
											{
												OFFSET 3.077988 0.000000 -0.000009
												CHANNELS 6 Xposition Yposition Zposition Xrotation Yrotation Zrotation
												End Site
												{
													OFFSET 3.077988 0.000000 0.000000
												}
											}
										}
									}
								}
								JOINT mixamorig:LeftHandRing1
								{
									OFFSET 12.147011 0.009903 -2.216630
									CHANNELS 6 Xposition Yposition Zposition Xrotation Yrotation Zrotation
									JOINT mixamorig:LeftHandRing2
									{
										OFFSET 3.601189 0.000000 0.000035
										CHANNELS 6 Xposition Yposition Zposition Xrotation Yrotation Zrotation
										JOINT mixamorig:LeftHandRing3
										{
											OFFSET 3.307312 0.000000 -0.000021
											CHANNELS 6 Xposition Yposition Zposition Xrotation Yrotation Zrotation
											JOINT mixamorig:LeftHandRing4
											{
												OFFSET 3.660110 0.000000 0.000000
												CHANNELS 3 Xrotation Yrotation Zrotation
												End Site
												{
													OFFSET 3.660118 0.000000 0.000000
												}
											}
										}
									}
								}
								JOINT mixamorig:LeftHandPinky1
								{
									OFFSET 10.908195 -0.226364 -4.725818
									CHANNELS 6 Xposition Yposition Zposition Xrotation Yrotation Zrotation
									JOINT mixamorig:LeftHandPinky2
									{
										OFFSET 4.136658 0.000000 0.000027
										CHANNELS 6 Xposition Yposition Zposition Xrotation Yrotation Zrotation
										JOINT mixamorig:LeftHandPinky3
										{
											OFFSET 2.594833 0.000000 -0.000035
											CHANNELS 6 Xposition Yposition Zposition Xrotation Yrotation Zrotation
											JOINT mixamorig:LeftHandPinky4
											{
												OFFSET 2.923866 0.000000 0.000019
												CHANNELS 6 Xposition Yposition Zposition Xrotation Yrotation Zrotation
												End Site
												{
													OFFSET 2.923874 0.000000 0.000000
												}
											}
										}
									}
								}
							}
						}
					}
				}
				JOINT mixamorig:RightShoulder
				{
					OFFSET -6.105696 9.110519 0.705564
					CHANNELS 6 Xposition Yposition Zposition Xrotation Yrotation Zrotation
					JOINT mixamorig:RightArm
					{
						OFFSET -12.655039 -0.266022 -2.600896
						CHANNELS 6 Xposition Yposition Zposition Xrotation Yrotation Zrotation
						JOINT mixamorig:RightForeArm
						{
							OFFSET -27.404676 0.000000 0.000000
							CHANNELS 3 Xrotation Yrotation Zrotation
							JOINT mixamorig:RightHand
							{
								OFFSET -27.614471 0.000046 0.000023
								CHANNELS 6 Xposition Yposition Zposition Xrotation Yrotation Zrotation
								JOINT mixamorig:RightHandMiddle1
								{
									OFFSET -12.775528 0.000015 0.000018
									CHANNELS 6 Xposition Yposition Zposition Xrotation Yrotation Zrotation
									JOINT mixamorig:RightHandMiddle2
									{
										OFFSET -3.613968 0.000000 0.000000
										CHANNELS 3 Xrotation Yrotation Zrotation
										JOINT mixamorig:RightHandMiddle3
										{
											OFFSET -3.459763 0.000000 -0.000023
											CHANNELS 6 Xposition Yposition Zposition Xrotation Yrotation Zrotation
											JOINT mixamorig:RightHandMiddle4
											{
												OFFSET -3.680191 0.000000 0.000032
												CHANNELS 6 Xposition Yposition Zposition Xrotation Yrotation Zrotation
												End Site
												{
													OFFSET -3.680191 0.000000 0.000000
												}
											}
										}
									}
								}
								JOINT mixamorig:RightHandThumb1
								{
									OFFSET -3.788811 -2.166992 3.003087
									CHANNELS 6 Xposition Yposition Zposition Xrotation Yrotation Zrotation
									JOINT mixamorig:RightHandThumb2
									{
										OFFSET -3.675446 -2.122009 2.122012
										CHANNELS 6 Xposition Yposition Zposition Xrotation Yrotation Zrotation
										JOINT mixamorig:RightHandThumb3
										{
											OFFSET -3.394356 -1.959747 1.959793
											CHANNELS 6 Xposition Yposition Zposition Xrotation Yrotation Zrotation
											JOINT mixamorig:RightHandThumb4
											{
												OFFSET -2.679405 -1.546951 1.546920
												CHANNELS 6 Xposition Yposition Zposition Xrotation Yrotation Zrotation
												End Site
												{
													OFFSET -3.459076 0.000000 0.000000
												}
											}
										}
									}
								}
								JOINT mixamorig:RightHandIndex1
								{
									OFFSET -12.266617 -0.231674 2.822056
									CHANNELS 6 Xposition Yposition Zposition Xrotation Yrotation Zrotation
									JOINT mixamorig:RightHandIndex2
									{
										OFFSET -3.891968 0.000000 0.000037
										CHANNELS 6 Xposition Yposition Zposition Xrotation Yrotation Zrotation
										JOINT mixamorig:RightHandIndex3
										{
											OFFSET -3.415161 0.000000 -0.000009
											CHANNELS 6 Xposition Yposition Zposition Xrotation Yrotation Zrotation
											JOINT mixamorig:RightHandIndex4
											{
												OFFSET -3.077988 0.000000 -0.000009
												CHANNELS 6 Xposition Yposition Zposition Xrotation Yrotation Zrotation
												End Site
												{
													OFFSET -3.077988 0.000000 0.000000
												}
											}
										}
									}
								}
								JOINT mixamorig:RightHandRing1
								{
									OFFSET -12.147003 0.009903 -2.216631
									CHANNELS 6 Xposition Yposition Zposition Xrotation Yrotation Zrotation
									JOINT mixamorig:RightHandRing2
									{
										OFFSET -3.601196 0.000000 0.000034
										CHANNELS 6 Xposition Yposition Zposition Xrotation Yrotation Zrotation
										JOINT mixamorig:RightHandRing3
										{
											OFFSET -3.307312 0.000000 -0.000021
											CHANNELS 6 Xposition Yposition Zposition Xrotation Yrotation Zrotation
											JOINT mixamorig:RightHandRing4
											{
												OFFSET -3.660110 0.000000 0.000000
												CHANNELS 3 Xrotation Yrotation Zrotation
												End Site
												{
													OFFSET -3.660118 0.000000 0.000001
												}
											}
										}
									}
								}
								JOINT mixamorig:RightHandPinky1
								{
									OFFSET -10.908195 -0.226364 -4.725820
									CHANNELS 6 Xposition Yposition Zposition Xrotation Yrotation Zrotation
									JOINT mixamorig:RightHandPinky2
									{
										OFFSET -4.136650 0.000000 0.000026
										CHANNELS 6 Xposition Yposition Zposition Xrotation Yrotation Zrotation
										JOINT mixamorig:RightHandPinky3
										{
											OFFSET -2.594841 0.000000 -0.000037
											CHANNELS 6 Xposition Yposition Zposition Xrotation Yrotation Zrotation
											JOINT mixamorig:RightHandPinky4
											{
												OFFSET -2.923866 0.000000 0.000019
												CHANNELS 6 Xposition Yposition Zposition Xrotation Yrotation Zrotation
												End Site
												{
													OFFSET -2.923874 0.000000 0.000000
												}
											}
										}
									}
								}
							}
						}
					}
				}
			}
		}
	}
	JOINT mixamorig:RightUpLeg
	{
		OFFSET -9.124454 -6.656395 -0.055378
		CHANNELS 6 Xposition Yposition Zposition Xrotation Yrotation Zrotation
		JOINT mixamorig:RightLeg
		{
			OFFSET -0.244680 -40.595436 -0.514528
			CHANNELS 6 Xposition Yposition Zposition Xrotation Yrotation Zrotation
			JOINT mixamorig:RightFoot
			{
				OFFSET 0.244669 -42.047871 -2.060231
				CHANNELS 6 Xposition Yposition Zposition Xrotation Yrotation Zrotation
				JOINT mixamorig:RightToeBase
				{
					OFFSET -0.373360 -10.492195 12.640663
					CHANNELS 6 Xposition Yposition Zposition Xrotation Yrotation Zrotation
					JOINT mixamorig:RightToe_End
					{
						OFFSET 0.000000 0.000000 9.992521
						CHANNELS 6 Xposition Yposition Zposition Xrotation Yrotation Zrotation
						End Site
						{
							OFFSET 0.000000 0.000000 9.992521
						}
					}
				}
			}
		}
	}
	JOINT mixamorig:LeftUpLeg
	{
		OFFSET 9.124453 -6.656395 -0.055378
		CHANNELS 6 Xposition Yposition Zposition Xrotation Yrotation Zrotation
		JOINT mixamorig:LeftLeg
		{
			OFFSET 0.244680 -40.595406 -0.517041
			CHANNELS 6 Xposition Yposition Zposition Xrotation Yrotation Zrotation
			JOINT mixamorig:LeftFoot
			{
				OFFSET -0.244669 -42.047997 -2.057641
				CHANNELS 6 Xposition Yposition Zposition Xrotation Yrotation Zrotation
				JOINT mixamorig:LeftToeBase
				{
					OFFSET 0.373360 -10.492195 12.640664
					CHANNELS 6 Xposition Yposition Zposition Xrotation Yrotation Zrotation
					JOINT mixamorig:LeftToe_End
					{
						OFFSET 0.000000 0.000001 9.992521
						CHANNELS 6 Xposition Yposition Zposition Xrotation Yrotation Zrotation
						End Site
						{
							OFFSET 0.000000 0.000000 9.992521
						}
					}
				}
			}
		}
	}
}
MOTION
Frames: 3
Frame Time: 0.033333
-0.090010 99.030991 -0.130506 -2.033248 0.334286 1.435444 -0.000000 9.923466 -1.227335 5.776387 -3.650176 -4.701056 -0.000139 11.645441 -1.422341 0.646043 -1.078624 -3.369262 0.000091 13.360214 -1.626459 0.571842 -1.159146 -3.849448 0.000026 15.032494 0.792904 0.558956 2.182183 0.666052 0.000006 10.321816 3.142428 -6.353515 2.492203 8.695230 0.000155 18.474670 6.636399 -0.000000 -0.000000 -0.000000 2.947916 7.681778 9.120731 -0.000000 -0.000000 -0.000000 -2.944481 7.681763 9.120497 -0.000000 -0.000000 -0.000000 6.105824 9.110428 0.705550 2.139120 -0.199035 -8.176068 12.655037 -0.265902 -2.600926 1.914721 -8.675787 -55.670796 27.404705 0.000025 0.000005 0.000003 -9.194320 -0.000006 27.614445 0.000035 0.000024 -24.596652 6.817593 -2.091613 12.775525 0.000014 0.000021 7.316842 8.377765 -83.923880 6.940155 5.745582 -100.779885 3.459777 -0.000001 -0.000024 1.301467 3.681963 -38.923182 3.680194 -0.000000 0.000033 0.000000 0.000000 0.000002 3.788819 -2.166992 3.003090 47.414429 -36.283157 34.307948 3.675439 -2.122017 2.122005 35.080569 32.695549 -35.603000 3.394381 -1.959749 1.959797 2.326259 28.995645 9.840873 2.679403 -1.546951 1.546919 0.000004 0.000002 0.000001 12.266608 -0.231671 2.822058 0.086866 -6.397780 -82.622975 3.891979 0.000003 0.000036 4.120806 5.588036 -72.792823 3.415158 -0.000002 -0.000009 0.571195 2.524389 -25.495419 3.077979 0.000001 -0.000008 -0.000000 -0.000000 0.000000 12.146992 0.009905 -2.216630 -1.359706 7.585168 -84.865456 3.601175 -0.000009 0.000036 6.805200 5.769512 -99.435547 3.307318 -0.000002 -0.000019 4.931625 5.776083 -80.968450 0.000000 0.000000 0.000001 10.908198 -0.226362 -4.725818 1.628934 7.098137 -71.653425 4.136653 -0.000005 0.000024 3.236512 5.234389 -63.436372 2.594836 -0.000002 -0.000036 1.184850 3.532980 -37.069960 2.923865 -0.000017 0.000019 -0.000000 -0.000000 -0.000003 -6.105699 9.110507 0.705562 0.495349 5.124546 11.158251 -12.655037 -0.266021 -2.600895 5.445168 -5.543259 73.086583 0.000029 27.855970 0.000011 -27.614481 0.000053 0.000021 5.303922 2.468475 3.654328 -12.775509 0.000002 0.000015 1.684891 -7.441122 20.645987 1.681326 -3.582580 50.269356 -3.459750 -0.000017 -0.000024 0.596689 -2.281859 29.305152 -3.680190 -0.000015 0.000032 -0.000000 -0.000000 -0.000000 -3.788798 -2.167005 3.003087 7.540764 23.491508 -3.086022 -3.675445 -2.122006 2.122008 27.008267 -39.954127 9.858930 -3.394353 -1.959753 1.959795 2.622404 -39.149087 -0.186103 -2.679400 -1.546950 1.546919 -0.000001 -0.000001 0.000001 -12.266613 -0.231679 2.822054 12.501802 2.067377 19.763735 -3.891954 0.000003 0.000040 0.789968 -2.596061 33.844550 -3.415163 -0.000000 -0.000008 0.031016 -0.537000 6.611061 -3.077990 0.000003 -0.000009 0.000001 0.000000 0.000001 -12.146986 0.009885 -2.216634 2.308782 -7.631674 28.280424 -3.601174 -0.000022 0.000034 1.909520 -3.760202 53.832754 -3.307326 -0.000021 -0.000021 1.272121 -3.199214 43.360315 0.000000 -0.000000 0.000001 -10.908178 -0.226359 -4.725824 -10.147676 -17.744548 22.797198 -4.136650 0.000003 0.000026 1.829391 -3.700423 52.601216 -2.594852 0.000005 -0.000035 1.923004 -3.770001 54.038104 -2.923870 -0.000015 0.000019 -0.000000 0.000000 -0.000002 -9.124453 -6.656399 -0.055378 -1.230620 -10.083825 -6.886210 -0.244678 -40.595440 -0.514527 11.796201 -5.697224 -1.733162 0.244670 -42.047863 -2.060230 -7.186254 -0.792394 7.032417 -0.373362 -10.492195 12.640664 -1.315456 0.000002 -0.000001 -0.000001 0.000000 9.992521 -0.000000 -0.000001 0.000000 9.124452 -6.656392 -0.055378 -1.098113 10.158789 4.758557 0.244681 -40.595402 -0.517040 8.044277 -2.869369 0.603291 -0.244671 -42.048000 -2.057641 -4.522174 0.398549 -4.354964 0.373359 -10.492194 12.640664 -0.667460 -0.000001 -0.000002 -0.000002 0.000001 9.992523 0.000000 -0.000000 -0.000000 
-0.087795 99.045090 -0.166339 -2.097822 0.347206 1.411472 -0.000000 9.923469 -1.227335 5.839578 -3.608899 -4.752631 -0.000138 11.645433 -1.422341 0.646042 -1.062371 -3.369263 0.000093 13.360214 -1.626459 0.571841 -1.146228 -3.849447 0.000025 15.032479 0.792905 0.507338 2.176098 0.666056 0.000002 10.321831 3.142429 -6.382402 2.588797 8.762188 0.000154 18.474686 6.636399 -0.000000 -0.000000 0.000000 2.947914 7.681747 9.120732 -0.000000 -0.000000 0.000000 -2.944482 7.681763 9.120498 -0.000000 -0.000000 0.000000 6.105824 9.110425 0.705550 2.170785 -0.116984 -8.179313 12.655029 -0.265931 -2.600926 1.996458 -8.709180 -55.568807 27.404671 0.000044 0.000007 -0.000001 -9.569534 -0.000003 27.614466 0.000018 0.000023 -24.599106 6.934312 -2.030735 12.775518 0.000006 0.000018 7.316838 8.377766 -83.923839 6.940154 5.745580 -100.779899 3.459769 0.000002 -0.000024 1.301466 3.681962 -38.923168 3.680199 0.000012 0.000032 0.000000 0.000000 -0.000003 3.788808 -2.166992 3.003090 47.414425 -36.283157 34.307955 3.675452 -2.122021 2.122005 35.082741 32.697406 -35.603847 3.394373 -1.959732 1.959795 2.326263 28.995635 9.840876 2.679396 -1.546950 1.546929 -0.000001 0.000000 0.000001 12.266622 -0.231677 2.822059 0.086863 -6.397782 -82.622968 3.891969 -0.000010 0.000036 4.117088 5.586886 -72.754683 3.415154 -0.000006 -0.000006 0.571191 2.524390 -25.495426 3.077998 0.000001 -0.000009 -0.000000 -0.000001 -0.000001 12.146996 0.009903 -2.216628 -1.359708 7.585168 -84.865476 3.601187 0.000001 0.000031 6.805200 5.769509 -99.435547 3.307325 -0.000009 -0.000021 4.935775 5.776738 -81.009711 0.000000 0.000001 0.000000 10.908199 -0.226371 -4.725820 1.629674 7.098806 -71.662386 4.136653 -0.000011 0.000027 3.236067 5.234166 -63.431496 2.594827 0.000013 -0.000034 1.184851 3.532982 -37.069967 2.923874 0.000003 0.000019 -0.000000 -0.000000 -0.000000 -6.105694 9.110487 0.705564 0.516646 5.016991 11.156374 -12.655044 -0.266036 -2.600896 5.444306 -5.469351 73.019408 0.000029 27.435106 0.000013 -27.614471 0.000066 0.000023 5.286515 2.433249 3.657345 -12.775539 0.000003 0.000019 1.681875 -7.423271 20.700770 1.677479 -3.579397 50.207829 -3.459758 -0.000001 -0.000024 0.596691 -2.281863 29.305149 -3.680190 0.000016 0.000033 0.000000 -0.000001 -0.000000 -3.788814 -2.166992 3.003089 7.540768 23.491510 -3.086018 -3.675449 -2.122004 2.122007 27.023340 -39.986718 9.865349 -3.394370 -1.959748 1.959792 2.558943 -39.097984 -0.252636 -2.679415 -1.546965 1.546912 -0.000001 -0.000000 0.000001 -12.266623 -0.231674 2.822056 12.479799 2.113452 19.962266 -3.891946 0.000001 0.000038 0.776798 -2.576329 33.552744 -3.415154 -0.000001 -0.000009 0.031013 -0.537000 6.611056 -3.078003 -0.000002 -0.000005 -0.000002 0.000000 -0.000000 -12.147010 0.009888 -2.216634 2.330046 -7.684923 28.173289 -3.601172 -0.000009 0.000035 1.903949 -3.756129 53.747735 -3.307323 0.000003 -0.000021 1.263053 -3.189604 43.197617 0.000001 -0.000000 -0.000001 -10.908192 -0.226369 -4.725818 -10.119801 -17.760203 22.657629 -4.136648 -0.000003 0.000027 1.810608 -3.686015 52.309591 -2.594848 0.000007 -0.000040 1.909165 -3.759945 53.827372 -2.923866 -0.000015 0.000018 -0.000000 0.000000 0.000000 -9.124453 -6.656392 -0.055378 -1.063005 -10.074294 -6.767163 -0.244681 -40.595428 -0.514527 11.562062 -5.736120 -1.882288 0.244668 -42.047867 -2.060229 -7.056762 -0.792072 7.109066 -0.373358 -10.492192 12.640665 -1.305475 -0.000000 -0.000002 -0.000003 0.000000 9.992521 -0.000000 -0.000000 0.000000 9.124451 -6.656404 -0.055378 -0.965467 10.181203 4.758301 0.244682 -40.595390 -0.517040 7.861693 -2.886346 0.615635 -0.244671 -42.048000 -2.057641 -4.434632 0.398246 -4.344974 0.373359 -10.492194 12.640664 -0.620749 -0.000008 0.000001 0.000002 0.000001 9.992521 0.000000 0.000001 0.000000 
-0.086426 99.060707 -0.204429 -2.160573 0.364193 1.387654 0.000000 9.923465 -1.227335 5.873219 -3.569260 -4.788016 -0.000140 11.645433 -1.422342 0.646042 -1.045728 -3.369264 0.000092 13.360199 -1.626460 0.571842 -1.135863 -3.849443 0.000026 15.032490 0.792906 0.440475 2.166885 0.666051 0.000005 10.321858 3.142429 -6.384642 2.661735 8.779511 0.000154 18.474701 6.636400 -0.000000 -0.000000 0.000000 2.947915 7.681763 9.120732 -0.000000 -0.000000 0.000000 -2.944481 7.681778 9.120496 -0.000000 -0.000000 0.000000 6.105822 9.110420 0.705550 2.207128 -0.023630 -8.197567 12.655036 -0.265932 -2.600922 1.980819 -8.765582 -55.487279 27.404675 0.000041 0.000006 0.000002 -9.683985 0.000014 27.614464 0.000036 0.000021 -24.650301 6.907444 -2.040922 12.775505 0.000010 0.000019 7.316839 8.377765 -83.923839 6.940155 5.745582 -100.779872 3.459769 -0.000013 -0.000025 1.301467 3.681964 -38.923175 3.680200 -0.000002 0.000033 0.000000 0.000000 -0.000004 3.788800 -2.166992 3.003090 47.414425 -36.283157 34.307955 3.675439 -2.122025 2.122015 35.115645 32.714690 -35.629180 3.394372 -1.959744 1.959786 2.326272 28.995635 9.840853 2.679398 -1.546949 1.546916 -0.000001 0.000001 0.000000 12.266616 -0.231682 2.822057 0.084187 -6.395997 -82.640562 3.891979 0.000008 0.000038 4.116206 5.586614 -72.745585 3.415173 -0.000005 -0.000007 0.571194 2.524393 -25.495431 3.077987 -0.000000 -0.000009 -0.000000 -0.000001 0.000000 12.146979 0.009898 -2.216630 -1.359710 7.585167 -84.865456 3.601187 0.000002 0.000036 6.805200 5.769514 -99.435540 3.307326 0.000007 -0.000022 4.932677 5.776249 -80.978962 0.000000 0.000001 0.000001 10.908197 -0.226367 -4.725820 1.632374 7.101228 -71.694966 4.136652 0.000006 0.000028 3.235001 5.233635 -63.419830 2.594827 -0.000002 -0.000035 1.184851 3.532982 -37.069964 2.923864 0.000001 0.000019 -0.000000 -0.000000 0.000001 -6.105700 9.110507 0.705564 0.542452 4.923868 11.159811 -12.655043 -0.266021 -2.600896 5.481807 -5.397009 72.952793 0.000026 27.070504 0.000006 -27.614475 0.000059 0.000026 5.250475 2.338355 3.665577 -12.775516 0.000016 0.000014 1.690771 -7.419889 20.847353 1.672695 -3.575409 50.131130 -3.459765 -0.000001 -0.000023 0.596691 -2.281863 29.305145 -3.680199 -0.000001 0.000033 0.000000 0.000000 0.000000 -3.788801 -2.166991 3.003087 7.540765 23.491507 -3.086021 -3.675441 -2.122011 2.122010 26.972224 -39.929703 9.811388 -3.394359 -1.959750 1.959793 2.399692 -38.976283 -0.421554 -2.679405 -1.546951 1.546928 0.000002 0.000002 -0.000000 -12.266615 -0.231664 2.822052 12.459856 2.149535 20.208686 -3.891972 -0.000003 0.000040 0.775170 -2.573871 33.516339 -3.415171 0.000001 -0.000009 0.031007 -0.536999 6.611064 -3.077991 -0.000009 -0.000009 -0.000001 0.000000 -0.000002 -12.146999 0.009901 -2.216633 2.357170 -7.732846 28.189050 -3.601165 -0.000012 0.000037 1.898319 -3.752006 53.661750 -3.307319 0.000002 -0.000022 1.253350 -3.179255 43.022959 0.000000 -0.000001 0.000001 -10.908180 -0.226369 -4.725822 -10.114826 -17.759323 22.564898 -4.136640 0.000003 0.000025 1.794892 -3.673844 52.064725 -2.594841 0.000015 -0.000036 1.894988 -3.749559 53.610855 -2.923869 -0.000001 0.000019 0.000000 -0.000000 0.000001 -9.124453 -6.656391 -0.055378 -0.886346 -10.063973 -6.637779 -0.244681 -40.595425 -0.514527 11.304223 -5.785461 -2.047066 0.244669 -42.047874 -2.060230 -6.915204 -0.791895 7.189710 -0.373357 -10.492195 12.640664 -1.294553 -0.000009 -0.000001 0.000001 0.000000 9.992521 0.000000 -0.000001 -0.000000 9.124452 -6.656405 -0.055378 -0.851758 10.183806 4.758664 0.244679 -40.595402 -0.517041 7.708093 -2.902710 0.631830 -0.244670 -42.048000 -2.057642 -4.350511 0.397998 -4.322597 0.373360 -10.492192 12.640662 -0.599089 0.000004 -0.000001 0.000003 0.000001 9.992521 -0.000000 0.000000 -0.000000 
